# Created by FreeCAD <http://www.freecadweb.org>
v 0.165093 -0.019412 0.137766
v 0.169717 -0.026055 0.047766
v 0.169717 -0.026055 0.137766
v 0.175583 -0.031631 0.047766
v 0.175583 -0.031631 0.137766
v 0.182451 -0.035912 0.047766
v 0.182451 -0.035912 0.137766
v 0.240067 0.000000 0.047766
v 0.239248 0.008052 0.047766
v 0.240067 0.000000 0.137766
v 0.239248 0.008052 0.137766
v 0.190041 -0.038723 0.047766
v 0.190041 -0.038723 0.137766
v 0.236825 0.015774 0.047766
v 0.236825 0.015774 0.137766
v 0.198041 -0.039949 0.047766
v 0.198041 -0.039949 0.137766
v 0.232898 0.022851 0.047766
v 0.232898 0.022851 0.137766
v 0.206124 -0.039539 0.047766
v 0.206124 -0.039539 0.137766
v 0.227626 0.028992 0.047766
v 0.227626 0.028992 0.137766
v 0.213959 -0.037510 0.047766
v 0.213959 -0.037510 0.137766
v 0.221226 0.033946 0.047766
v 0.221226 0.033946 0.137766
v 0.221226 -0.033946 0.047766
v 0.221226 -0.033946 0.137766
v 0.213959 0.037510 0.047766
v 0.213959 0.037510 0.137766
v 0.227626 -0.028992 0.047766
v 0.227626 -0.028992 0.137766
v 0.206124 0.039539 0.047766
v 0.206124 0.039539 0.137766
v 0.232898 -0.022851 0.047766
v 0.232898 -0.022851 0.137766
v 0.198041 0.039949 0.047766
v 0.198041 0.039949 0.137766
v 0.236825 -0.015774 0.047766
v 0.236825 -0.015774 0.137766
v 0.190041 0.038723 0.047766
v 0.190041 0.038723 0.137766
v 0.239248 -0.008052 0.047766
v 0.239248 -0.008052 0.137766
v 0.182451 0.035912 0.047766
v 0.182451 0.035912 0.137766
v 0.175583 0.031631 0.047766
v 0.175583 0.031631 0.137766
v 0.169717 0.026055 0.047766
v 0.169717 0.026055 0.137766
v 0.165093 0.019412 0.047766
v 0.165093 0.019412 0.137766
v 0.161901 0.011975 0.047766
v 0.161901 0.011975 0.137766
v 0.160272 0.004047 0.047766
v 0.160272 0.004047 0.137766
v 0.160272 -0.004047 0.047766
v 0.160272 -0.004047 0.137766
v 0.161901 -0.011975 0.047766
v 0.161901 -0.011975 0.137766
v 0.165093 -0.019412 0.047766
vn -0.820764 -0.571268 0.000000
vn -0.688966 -0.724793 0.000000
vn -0.688966 -0.724793 0.000000
vn -0.528964 -0.848644 0.000000
vn -0.528964 -0.848644 0.000000
vn 0.994869 0.101169 -0.000000
vn 0.994869 0.101169 0.000000
vn -0.347305 -0.937752 0.000000
vn -0.347305 -0.937752 0.000000
vn 0.954139 0.299363 0.000000
vn 0.954139 0.299363 -0.000000
vn -0.151428 -0.988468 0.000000
vn -0.151428 -0.988468 0.000000
vn 0.874346 0.485303 0.000000
vn 0.874346 0.485303 -0.000000
vn 0.050649 -0.998717 0.000000
vn 0.050649 -0.998717 0.000000
vn 0.758759 0.651372 0.000000
vn 0.758759 0.651372 -0.000000
vn 0.250652 -0.968077 0.000000
vn 0.250652 -0.968077 0.000000
vn 0.612105 0.790776 0.000000
vn 0.612105 0.790776 -0.000000
vn 0.440395 -0.897804 0.000000
vn 0.440395 -0.897804 0.000000
vn 0.440395 0.897804 0.000000
vn 0.440395 0.897804 -0.000000
vn 0.612105 -0.790776 0.000000
vn 0.612105 -0.790776 0.000000
vn 0.250652 0.968077 0.000000
vn 0.250652 0.968077 -0.000000
vn 0.758759 -0.651372 0.000000
vn 0.758759 -0.651372 0.000000
vn 0.050649 0.998717 0.000000
vn 0.050649 0.998717 -0.000000
vn 0.874346 -0.485303 0.000000
vn 0.874346 -0.485303 0.000000
vn -0.151428 0.988468 0.000000
vn -0.151428 0.988468 0.000000
vn 0.954139 -0.299363 0.000000
vn 0.954139 -0.299363 0.000000
vn 0.994869 -0.101169 0.000000
vn -0.347305 0.937752 0.000000
vn 0.994869 -0.101169 0.000000
vn -0.347305 0.937752 0.000000
vn -0.528964 0.848644 0.000000
vn -0.528964 0.848644 0.000000
vn -0.688966 0.724793 0.000000
vn -0.688966 0.724793 0.000000
vn -0.820764 0.571268 0.000000
vn -0.820764 0.571268 0.000000
vn -0.918958 0.394356 0.000000
vn -0.918958 0.394356 0.000000
vn -0.979530 0.201299 0.000000
vn -0.979530 0.201299 0.000000
vn -1.000000 0.000000 0.000000
vn -1.000000 -0.000000 0.000000
vn -0.979530 -0.201299 0.000000
vn -0.979530 -0.201299 0.000000
vn -0.918958 -0.394356 0.000000
vn -0.918958 -0.394356 0.000000
vn -0.820764 -0.571268 0.000000
vn 0.000000 0.000000 -1.000000
vn 0.000000 0.000000 -1.000000
vn 0.000000 0.000000 -1.000000
vn -0.000000 -0.000000 -1.000000
vn -0.000000 -0.000000 -1.000000
vn -0.000000 -0.000000 -1.000000
vn 0.000000 -0.000000 -1.000000
vn 0.000000 -0.000000 -1.000000
vn 0.000000 -0.000000 -1.000000
vn 0.000000 -0.000000 -1.000000
vn 0.000000 -0.000000 -1.000000
vn 0.000000 -0.000000 -1.000000
vn 0.000000 -0.000000 -1.000000
vn 0.000000 0.000000 -1.000000
vn 0.000000 0.000000 -1.000000
vn 0.000000 0.000000 -1.000000
vn 0.000000 0.000000 -1.000000
vn 0.000000 0.000000 -1.000000
vn 0.000000 0.000000 -1.000000
vn 0.000000 0.000000 -1.000000
vn 0.000000 0.000000 -1.000000
vn 0.000000 0.000000 -1.000000
vn 0.000000 0.000000 -1.000000
vn 0.000000 0.000000 -1.000000
vn 0.000000 0.000000 -1.000000
vn 0.000000 0.000000 -1.000000
vn 0.000000 0.000000 -1.000000
vn 0.000000 0.000000 -1.000000
vn 0.000000 0.000000 -1.000000
vn 0.000000 0.000000 1.000000
vn 0.000000 0.000000 1.000000
vn 0.000000 0.000000 1.000000
vn 0.000000 0.000000 1.000000
vn 0.000000 0.000000 1.000000
vn 0.000000 0.000000 1.000000
vn 0.000000 0.000000 1.000000
vn 0.000000 0.000000 1.000000
vn 0.000000 0.000000 1.000000
vn 0.000000 0.000000 1.000000
vn 0.000000 0.000000 1.000000
vn 0.000000 0.000000 1.000000
vn 0.000000 0.000000 1.000000
vn 0.000000 0.000000 1.000000
vn 0.000000 0.000000 1.000000
vn 0.000000 0.000000 1.000000
vn 0.000000 0.000000 1.000000
vn 0.000000 0.000000 1.000000
vn 0.000000 0.000000 1.000000
vn 0.000000 0.000000 1.000000
vn 0.000000 0.000000 1.000000
vn 0.000000 0.000000 1.000000
vn 0.000000 0.000000 1.000000
vn 0.000000 0.000000 1.000000
vn 0.000000 0.000000 1.000000
vn 0.000000 0.000000 1.000000
vn 0.000000 0.000000 1.000000
vn 0.000000 0.000000 1.000000
vn 0.000000 0.000000 1.000000
f 1//1 2//1 3//1
f 2//2 4//2 3//2
f 3//3 4//3 5//3
f 4//4 6//4 5//4
f 5//5 6//5 7//5
f 8//6 9//6 10//6
f 10//7 9//7 11//7
f 6//8 12//8 7//8
f 7//9 12//9 13//9
f 11//10 14//10 15//10
f 9//11 14//11 11//11
f 13//12 16//12 17//12
f 12//13 16//13 13//13
f 15//14 18//14 19//14
f 14//15 18//15 15//15
f 17//16 20//16 21//16
f 16//17 20//17 17//17
f 19//18 22//18 23//18
f 18//19 22//19 19//19
f 21//20 24//20 25//20
f 20//21 24//21 21//21
f 23//22 26//22 27//22
f 22//23 26//23 23//23
f 25//24 28//24 29//24
f 24//25 28//25 25//25
f 27//26 30//26 31//26
f 26//27 30//27 27//27
f 29//28 32//28 33//28
f 28//29 32//29 29//29
f 31//30 34//30 35//30
f 30//31 34//31 31//31
f 33//32 36//32 37//32
f 32//33 36//33 33//33
f 35//34 38//34 39//34
f 34//35 38//35 35//35
f 37//36 40//36 41//36
f 36//37 40//37 37//37
f 38//38 42//38 39//38
f 39//39 42//39 43//39
f 41//40 44//40 45//40
f 40//41 44//41 41//41
f 45//42 8//42 10//42
f 42//43 46//43 43//43
f 44//44 8//44 45//44
f 43//45 46//45 47//45
f 46//46 48//46 47//46
f 47//47 48//47 49//47
f 48//48 50//48 49//48
f 49//49 50//49 51//49
f 50//50 52//50 51//50
f 51//51 52//51 53//51
f 52//52 54//52 53//52
f 53//53 54//53 55//53
f 54//54 56//54 55//54
f 55//55 56//55 57//55
f 56//56 58//56 57//56
f 57//57 58//57 59//57
f 58//58 60//58 59//58
f 59//59 60//59 61//59
f 60//60 62//60 61//60
f 61//61 62//61 1//61
f 62//62 2//62 1//62
f 8//63 22//63 9//63
f 9//64 22//64 14//64
f 14//65 22//65 18//65
f 26//66 22//66 30//66
f 30//67 22//67 34//67
f 34//68 22//68 38//68
f 38//69 22//69 42//69
f 42//70 22//70 46//70
f 46//71 22//71 48//71
f 48//72 22//72 50//72
f 50//73 22//73 52//73
f 52//74 22//74 54//74
f 54//75 22//75 56//75
f 56//76 22//76 58//76
f 58//77 22//77 60//77
f 60//78 22//78 62//78
f 62//79 22//79 2//79
f 2//80 22//80 4//80
f 4//81 22//81 6//81
f 6//82 22//82 12//82
f 12//83 22//83 16//83
f 16//84 22//84 20//84
f 20//85 22//85 24//85
f 24//86 22//86 28//86
f 28//87 22//87 32//87
f 32//88 22//88 36//88
f 36//89 22//89 40//89
f 40//90 22//90 44//90
f 44//91 22//91 8//91
f 23//92 10//92 11//92
f 23//93 11//93 15//93
f 23//94 15//94 19//94
f 23//95 27//95 31//95
f 23//96 31//96 35//96
f 23//97 35//97 39//97
f 23//98 39//98 43//98
f 23//99 43//99 47//99
f 23//100 47//100 49//100
f 23//101 49//101 51//101
f 23//102 51//102 53//102
f 23//103 53//103 55//103
f 23//104 55//104 57//104
f 23//105 57//105 59//105
f 23//106 59//106 61//106
f 23//107 61//107 1//107
f 23//108 1//108 3//108
f 23//109 3//109 5//109
f 23//110 5//110 7//110
f 23//111 7//111 13//111
f 23//112 13//112 17//112
f 23//113 17//113 21//113
f 23//114 21//114 25//114
f 23//115 25//115 29//115
f 23//116 29//116 33//116
f 23//117 33//117 37//117
f 23//118 37//118 41//118
f 23//119 41//119 45//119
f 23//120 45//120 10//120
