# Created by FreeCAD <http://www.freecadweb.org>
v -0.007968 -0.000717 0.061042
v -0.007712 -0.002128 0.052242
v -0.007712 -0.002128 0.061042
v -0.007208 -0.003471 0.052242
v -0.007208 -0.003471 0.061042
v -0.006472 -0.004702 0.052242
v -0.006472 -0.004702 0.061042
v 0.008000 0.000000 0.052242
v 0.007871 0.001428 0.052242
v 0.008000 0.000000 0.061042
v 0.007871 0.001428 0.061042
v -0.005529 -0.005782 0.052242
v -0.005529 -0.005782 0.061042
v 0.007490 0.002811 0.052242
v 0.007490 0.002811 0.061042
v -0.004407 -0.006677 0.052242
v -0.004407 -0.006677 0.061042
v 0.006868 0.004103 0.052242
v 0.006868 0.004103 0.061042
v -0.003144 -0.007356 0.052242
v -0.003144 -0.007356 0.061042
v 0.006025 0.005264 0.052242
v 0.006025 0.005264 0.061042
v -0.001780 -0.007799 0.052242
v -0.001780 -0.007799 0.061042
v 0.004988 0.006255 0.052242
v 0.004988 0.006255 0.061042
v -0.000359 -0.007992 0.052242
v -0.000359 -0.007992 0.061042
v 0.003791 0.007045 0.052242
v 0.003791 0.007045 0.061042
v 0.001074 -0.007928 0.052242
v 0.001074 -0.007928 0.061042
v 0.002472 0.007608 0.052242
v 0.002472 0.007608 0.061042
v 0.002472 -0.007608 0.052242
v 0.002472 -0.007608 0.061042
v 0.001074 0.007928 0.052242
v 0.001074 0.007928 0.061042
v 0.003791 -0.007045 0.052242
v 0.003791 -0.007045 0.061042
v -0.000359 0.007992 0.052242
v -0.000359 0.007992 0.061042
v 0.004988 -0.006255 0.052242
v 0.004988 -0.006255 0.061042
v -0.001780 0.007799 0.052242
v -0.001780 0.007799 0.061042
v 0.006025 -0.005264 0.052242
v 0.006025 -0.005264 0.061042
v -0.003144 0.007356 0.052242
v -0.003144 0.007356 0.061042
v 0.006868 -0.004103 0.052242
v 0.006868 -0.004103 0.061042
v -0.004407 0.006677 0.052242
v -0.004407 0.006677 0.061042
v 0.007490 -0.002811 0.052242
v 0.007490 -0.002811 0.061042
v -0.005529 0.005782 0.052242
v -0.005529 0.005782 0.061042
v 0.007871 -0.001428 0.052242
v 0.007871 -0.001428 0.061042
v -0.006472 0.004702 0.052242
v -0.006472 0.004702 0.061042
v -0.007208 0.003471 0.052242
v -0.007208 0.003471 0.061042
v -0.007712 0.002128 0.052242
v -0.007712 0.002128 0.061042
v -0.007968 0.000717 0.052242
v -0.007968 0.000717 0.061042
v -0.007968 -0.000717 0.052242
vn -0.983930 -0.178557 0.000000
vn -0.936235 -0.351375 0.000000
vn -0.936235 -0.351375 0.000000
vn -0.858449 -0.512899 0.000000
vn -0.858449 -0.512899 0.000000
vn 0.995974 0.089639 -0.000000
vn 0.995974 0.089639 0.000000
vn -0.753071 -0.657939 0.000000
vn -0.753071 -0.657939 0.000000
vn 0.963963 0.266037 0.000000
vn 0.963963 0.266037 -0.000000
vn -0.623490 -0.781832 0.000000
vn -0.623490 -0.781832 0.000000
vn 0.900969 0.433884 0.000000
vn 0.900969 0.433884 -0.000000
vn -0.473869 -0.880595 0.000000
vn -0.473869 -0.880595 0.000000
vn 0.809017 0.587785 0.000000
vn 0.809017 0.587785 -0.000000
vn -0.309017 -0.951057 0.000000
vn -0.309017 -0.951057 0.000000
vn 0.691063 0.722795 0.000000
vn 0.691063 0.722795 -0.000000
vn -0.134233 -0.990950 0.000000
vn -0.134233 -0.990950 0.000000
vn 0.550897 0.834573 0.000000
vn 0.550897 0.834573 -0.000000
vn 0.044865 -0.998993 0.000000
vn 0.393025 0.919528 -0.000000
vn 0.044865 -0.998993 0.000000
vn 0.393025 0.919528 0.000000
vn 0.222521 -0.974928 0.000000
vn 0.222521 -0.974928 0.000000
vn 0.222521 0.974928 -0.000000
vn 0.222521 0.974928 0.000000
vn 0.393025 -0.919528 0.000000
vn 0.393025 -0.919528 0.000000
vn 0.044865 0.998993 -0.000000
vn 0.044865 0.998993 0.000000
vn 0.550897 -0.834573 0.000000
vn 0.550897 -0.834573 0.000000
vn -0.134233 0.990950 0.000000
vn -0.134233 0.990950 0.000000
vn 0.691063 -0.722795 0.000000
vn -0.309017 0.951057 0.000000
vn 0.691063 -0.722795 0.000000
vn -0.309017 0.951057 0.000000
vn 0.809017 -0.587785 0.000000
vn 0.809017 -0.587785 0.000000
vn -0.473869 0.880595 0.000000
vn -0.473869 0.880595 0.000000
vn 0.900969 -0.433884 0.000000
vn 0.900969 -0.433884 0.000000
vn -0.623490 0.781832 0.000000
vn -0.623490 0.781832 0.000000
vn 0.963963 -0.266037 0.000000
vn 0.963963 -0.266037 0.000000
vn -0.753071 0.657939 0.000000
vn 0.995974 -0.089639 0.000000
vn -0.753071 0.657939 0.000000
vn 0.995974 -0.089639 0.000000
vn -0.858449 0.512899 0.000000
vn -0.858449 0.512899 0.000000
vn -0.936235 0.351375 0.000000
vn -0.936235 0.351375 0.000000
vn -0.983930 0.178557 0.000000
vn -0.983930 0.178557 0.000000
vn -1.000000 0.000000 0.000000
vn -1.000000 -0.000000 0.000000
vn -0.983930 -0.178557 0.000000
vn 0.000000 0.000000 -1.000000
vn 0.000000 0.000000 -1.000000
vn 0.000000 0.000000 -1.000000
vn -0.000000 -0.000000 -1.000000
vn -0.000000 -0.000000 -1.000000
vn -0.000000 -0.000000 -1.000000
vn -0.000000 -0.000000 -1.000000
vn 0.000000 -0.000000 -1.000000
vn 0.000000 -0.000000 -1.000000
vn 0.000000 -0.000000 -1.000000
vn 0.000000 -0.000000 -1.000000
vn 0.000000 -0.000000 -1.000000
vn 0.000000 -0.000000 -1.000000
vn 0.000000 -0.000000 -1.000000
vn 0.000000 -0.000000 -1.000000
vn 0.000000 0.000000 -1.000000
vn 0.000000 0.000000 -1.000000
vn 0.000000 0.000000 -1.000000
vn 0.000000 0.000000 -1.000000
vn 0.000000 0.000000 -1.000000
vn 0.000000 0.000000 -1.000000
vn 0.000000 0.000000 -1.000000
vn 0.000000 0.000000 -1.000000
vn 0.000000 0.000000 -1.000000
vn 0.000000 0.000000 -1.000000
vn 0.000000 0.000000 -1.000000
vn 0.000000 0.000000 -1.000000
vn 0.000000 0.000000 -1.000000
vn 0.000000 0.000000 -1.000000
vn 0.000000 0.000000 -1.000000
vn 0.000000 0.000000 -1.000000
vn 0.000000 0.000000 -1.000000
vn 0.000000 0.000000 -1.000000
vn 0.000000 0.000000 1.000000
vn 0.000000 0.000000 1.000000
vn 0.000000 0.000000 1.000000
vn 0.000000 0.000000 1.000000
vn 0.000000 0.000000 1.000000
vn 0.000000 0.000000 1.000000
vn 0.000000 0.000000 1.000000
vn 0.000000 0.000000 1.000000
vn 0.000000 0.000000 1.000000
vn 0.000000 0.000000 1.000000
vn 0.000000 0.000000 1.000000
vn 0.000000 0.000000 1.000000
vn 0.000000 0.000000 1.000000
vn 0.000000 0.000000 1.000000
vn 0.000000 0.000000 1.000000
vn 0.000000 0.000000 1.000000
vn 0.000000 0.000000 1.000000
vn 0.000000 0.000000 1.000000
vn 0.000000 0.000000 1.000000
vn 0.000000 0.000000 1.000000
vn 0.000000 0.000000 1.000000
vn 0.000000 0.000000 1.000000
vn 0.000000 0.000000 1.000000
vn 0.000000 0.000000 1.000000
vn 0.000000 0.000000 1.000000
vn 0.000000 0.000000 1.000000
vn 0.000000 0.000000 1.000000
vn 0.000000 0.000000 1.000000
vn 0.000000 0.000000 1.000000
vn 0.000000 0.000000 1.000000
vn 0.000000 0.000000 1.000000
vn 0.000000 0.000000 1.000000
vn 0.000000 0.000000 1.000000
f 1//1 2//1 3//1
f 3//2 4//2 5//2
f 2//3 4//3 3//3
f 4//4 6//4 5//4
f 5//5 6//5 7//5
f 8//6 9//6 10//6
f 10//7 9//7 11//7
f 7//8 12//8 13//8
f 6//9 12//9 7//9
f 11//10 14//10 15//10
f 9//11 14//11 11//11
f 13//12 16//12 17//12
f 12//13 16//13 13//13
f 15//14 18//14 19//14
f 14//15 18//15 15//15
f 17//16 20//16 21//16
f 16//17 20//17 17//17
f 19//18 22//18 23//18
f 18//19 22//19 19//19
f 21//20 24//20 25//20
f 20//21 24//21 21//21
f 23//22 26//22 27//22
f 22//23 26//23 23//23
f 25//24 28//24 29//24
f 24//25 28//25 25//25
f 27//26 30//26 31//26
f 26//27 30//27 27//27
f 29//28 32//28 33//28
f 30//29 34//29 31//29
f 28//30 32//30 29//30
f 31//31 34//31 35//31
f 33//32 36//32 37//32
f 32//33 36//33 33//33
f 34//34 38//34 35//34
f 35//35 38//35 39//35
f 37//36 40//36 41//36
f 36//37 40//37 37//37
f 38//38 42//38 39//38
f 39//39 42//39 43//39
f 41//40 44//40 45//40
f 40//41 44//41 41//41
f 42//42 46//42 43//42
f 43//43 46//43 47//43
f 45//44 48//44 49//44
f 46//45 50//45 47//45
f 44//46 48//46 45//46
f 47//47 50//47 51//47
f 48//48 52//48 49//48
f 49//49 52//49 53//49
f 50//50 54//50 51//50
f 51//51 54//51 55//51
f 52//52 56//52 53//52
f 53//53 56//53 57//53
f 54//54 58//54 55//54
f 55//55 58//55 59//55
f 56//56 60//56 57//56
f 57//57 60//57 61//57
f 58//58 62//58 59//58
f 60//59 8//59 61//59
f 59//60 62//60 63//60
f 61//61 8//61 10//61
f 62//62 64//62 63//62
f 63//63 64//63 65//63
f 64//64 66//64 65//64
f 65//65 66//65 67//65
f 66//66 68//66 67//66
f 67//67 68//67 69//67
f 68//68 70//68 69//68
f 69//69 70//69 1//69
f 70//70 2//70 1//70
f 8//71 22//71 9//71
f 9//72 22//72 14//72
f 14//73 22//73 18//73
f 26//74 22//74 30//74
f 30//75 22//75 34//75
f 34//76 22//76 38//76
f 38//77 22//77 42//77
f 42//78 22//78 46//78
f 46//79 22//79 50//79
f 50//80 22//80 54//80
f 54//81 22//81 58//81
f 58//82 22//82 62//82
f 62//83 22//83 64//83
f 64//84 22//84 66//84
f 66//85 22//85 68//85
f 68//86 22//86 70//86
f 70//87 22//87 2//87
f 2//88 22//88 4//88
f 4//89 22//89 6//89
f 6//90 22//90 12//90
f 12//91 22//91 16//91
f 16//92 22//92 20//92
f 20//93 22//93 24//93
f 24//94 22//94 28//94
f 28//95 22//95 32//95
f 32//96 22//96 36//96
f 36//97 22//97 40//97
f 40//98 22//98 44//98
f 44//99 22//99 48//99
f 48//100 22//100 52//100
f 52//101 22//101 56//101
f 56//102 22//102 60//102
f 60//103 22//103 8//103
f 23//104 10//104 11//104
f 23//105 11//105 15//105
f 23//106 15//106 19//106
f 23//107 27//107 31//107
f 23//108 31//108 35//108
f 23//109 35//109 39//109
f 23//110 39//110 43//110
f 23//111 43//111 47//111
f 23//112 47//112 51//112
f 23//113 51//113 55//113
f 23//114 55//114 59//114
f 23//115 59//115 63//115
f 23//116 63//116 65//116
f 23//117 65//117 67//117
f 23//118 67//118 69//118
f 23//119 69//119 1//119
f 23//120 1//120 3//120
f 23//121 3//121 5//121
f 23//122 5//122 7//122
f 23//123 7//123 13//123
f 23//124 13//124 17//124
f 23//125 17//125 21//125
f 23//126 21//126 25//126
f 23//127 25//127 29//127
f 23//128 29//128 33//128
f 23//129 33//129 37//129
f 23//130 37//130 41//130
f 23//131 41//131 45//131
f 23//132 45//132 49//132
f 23//133 49//133 53//133
f 23//134 53//134 57//134
f 23//135 57//135 61//135
f 23//136 61//136 10//136
