# Created by FreeCAD <http://www.freecadweb.org>
v -0.029040 -0.027927 -0.055390
v -0.022447 -0.033527 -0.188390
v -0.022447 -0.033527 -0.055390
v -0.014806 -0.037578 -0.188390
v -0.014806 -0.037578 -0.055390
v -0.006471 -0.039892 -0.188390
v 0.040000 -0.000419 -0.188390
v 0.039065 0.008180 -0.188390
v 0.040000 -0.000419 -0.055390
v -0.006471 -0.039892 -0.055390
v 0.039065 0.008180 -0.055390
v 0.002166 -0.040360 -0.188390
v 0.002166 -0.040360 -0.055390
v 0.036303 0.016377 -0.188390
v 0.036303 0.016377 -0.055390
v 0.010701 -0.038961 -0.188390
v 0.010701 -0.038961 -0.055390
v 0.031844 0.023788 -0.188390
v 0.031844 0.023788 -0.055390
v 0.018736 -0.035759 -0.188390
v 0.018736 -0.035759 -0.055390
v 0.025895 0.030067 -0.188390
v 0.025895 0.030067 -0.055390
v 0.025895 -0.030905 -0.188390
v 0.025895 -0.030905 -0.055390
v 0.018736 0.034921 -0.188390
v 0.018736 0.034921 -0.055390
v 0.031844 -0.024626 -0.188390
v 0.031844 -0.024626 -0.055390
v 0.010701 0.038123 -0.188390
v 0.010701 0.038123 -0.055390
v 0.036303 -0.017215 -0.188390
v 0.036303 -0.017215 -0.055390
v 0.002166 0.039522 -0.188390
v 0.002166 0.039522 -0.055390
v 0.039065 -0.009018 -0.188390
v 0.039065 -0.009018 -0.055390
v -0.006471 0.039054 -0.188390
v -0.006471 0.039054 -0.055390
v -0.014806 0.036740 -0.188390
v -0.014806 0.036740 -0.055390
v -0.022447 0.032689 -0.188390
v -0.022447 0.032689 -0.055390
v -0.029040 0.027089 -0.188390
v -0.029040 0.027089 -0.055390
v -0.034274 0.020203 -0.188390
v -0.034274 0.020203 -0.055390
v -0.037906 0.012353 -0.188390
v -0.037906 0.012353 -0.055390
v -0.039766 0.003906 -0.188390
v -0.039766 0.003906 -0.055390
v -0.039766 -0.004744 -0.188390
v -0.039766 -0.004744 -0.055390
v -0.037906 -0.013191 -0.188390
v -0.037906 -0.013191 -0.055390
v -0.034274 -0.021041 -0.188390
v -0.034274 -0.021041 -0.055390
v -0.029040 -0.027927 -0.188390
vn -0.647386 -0.762162 0.000000
vn -0.468409 -0.883512 0.000000
vn -0.468409 -0.883512 0.000000
vn -0.267529 -0.963550 0.000000
vn 0.994138 0.108119 -0.000000
vn -0.267529 -0.963550 0.000000
vn 0.994138 0.108119 0.000000
vn -0.054139 -0.998533 0.000000
vn -0.054139 -0.998533 0.000000
vn 0.947653 0.319301 0.000000
vn 0.947653 0.319301 -0.000000
vn 0.161782 -0.986827 0.000000
vn 0.161782 -0.986827 0.000000
vn 0.856857 0.515554 0.000000
vn 0.856857 0.515554 -0.000000
vn 0.370138 -0.928977 0.000000
vn 0.725996 0.687699 0.000000
vn 0.370138 -0.928977 0.000000
vn 0.725996 0.687699 -0.000000
vn 0.561187 -0.827689 0.000000
vn 0.561187 -0.827689 0.000000
vn 0.561187 0.827689 0.000000
vn 0.561187 0.827689 -0.000000
vn 0.725996 -0.687699 0.000000
vn 0.370138 0.928977 0.000000
vn 0.725996 -0.687699 0.000000
vn 0.370138 0.928977 -0.000000
vn 0.856857 -0.515554 0.000000
vn 0.856857 -0.515554 0.000000
vn 0.161782 0.986827 0.000000
vn 0.161782 0.986827 -0.000000
vn 0.947653 -0.319301 0.000000
vn 0.947653 -0.319301 0.000000
vn -0.054139 0.998533 0.000000
vn 0.994138 -0.108119 0.000000
vn -0.054139 0.998533 0.000000
vn 0.994138 -0.108119 0.000000
vn -0.267529 0.963550 0.000000
vn -0.267529 0.963550 0.000000
vn -0.468409 0.883512 0.000000
vn -0.468409 0.883512 0.000000
vn -0.647386 0.762162 0.000000
vn -0.647386 0.762162 0.000000
vn -0.796093 0.605174 0.000000
vn -0.796093 0.605174 0.000000
vn -0.907575 0.419889 0.000000
vn -0.907575 0.419889 0.000000
vn -0.976620 0.214971 0.000000
vn -0.976620 0.214971 0.000000
vn -1.000000 0.000000 0.000000
vn -1.000000 -0.000000 0.000000
vn -0.976620 -0.214971 0.000000
vn -0.976620 -0.214971 0.000000
vn -0.907575 -0.419889 0.000000
vn -0.907575 -0.419889 0.000000
vn -0.796093 -0.605174 0.000000
vn -0.796093 -0.605174 0.000000
vn -0.647386 -0.762162 0.000000
vn 0.000000 0.000000 -1.000000
vn 0.000000 0.000000 -1.000000
vn 0.000000 0.000000 -1.000000
vn -0.000000 -0.000000 -1.000000
vn -0.000000 -0.000000 -1.000000
vn 0.000000 -0.000000 -1.000000
vn 0.000000 -0.000000 -1.000000
vn 0.000000 -0.000000 -1.000000
vn 0.000000 -0.000000 -1.000000
vn 0.000000 -0.000000 -1.000000
vn 0.000000 -0.000000 -1.000000
vn 0.000000 -0.000000 -1.000000
vn 0.000000 0.000000 -1.000000
vn 0.000000 0.000000 -1.000000
vn 0.000000 0.000000 -1.000000
vn 0.000000 0.000000 -1.000000
vn 0.000000 0.000000 -1.000000
vn 0.000000 0.000000 -1.000000
vn 0.000000 0.000000 -1.000000
vn 0.000000 0.000000 -1.000000
vn 0.000000 0.000000 -1.000000
vn 0.000000 0.000000 -1.000000
vn 0.000000 0.000000 -1.000000
vn 0.000000 0.000000 -1.000000
vn 0.000000 0.000000 -1.000000
vn 0.000000 0.000000 -1.000000
vn 0.000000 0.000000 -1.000000
vn 0.000000 0.000000 1.000000
vn 0.000000 0.000000 1.000000
vn 0.000000 0.000000 1.000000
vn 0.000000 0.000000 1.000000
vn 0.000000 0.000000 1.000000
vn 0.000000 0.000000 1.000000
vn 0.000000 0.000000 1.000000
vn 0.000000 0.000000 1.000000
vn 0.000000 0.000000 1.000000
vn 0.000000 0.000000 1.000000
vn 0.000000 0.000000 1.000000
vn 0.000000 0.000000 1.000000
vn 0.000000 0.000000 1.000000
vn 0.000000 0.000000 1.000000
vn 0.000000 0.000000 1.000000
vn 0.000000 0.000000 1.000000
vn 0.000000 0.000000 1.000000
vn 0.000000 0.000000 1.000000
vn 0.000000 0.000000 1.000000
vn 0.000000 0.000000 1.000000
vn 0.000000 0.000000 1.000000
vn 0.000000 0.000000 1.000000
vn 0.000000 0.000000 1.000000
vn 0.000000 0.000000 1.000000
vn 0.000000 0.000000 1.000000
vn 0.000000 0.000000 1.000000
vn 0.000000 0.000000 1.000000
f 1//1 2//1 3//1
f 2//2 4//2 3//2
f 3//3 4//3 5//3
f 4//4 6//4 5//4
f 7//5 8//5 9//5
f 5//6 6//6 10//6
f 9//7 8//7 11//7
f 10//8 12//8 13//8
f 6//9 12//9 10//9
f 11//10 14//10 15//10
f 8//11 14//11 11//11
f 12//12 16//12 13//12
f 13//13 16//13 17//13
f 15//14 18//14 19//14
f 14//15 18//15 15//15
f 17//16 20//16 21//16
f 19//17 22//17 23//17
f 16//18 20//18 17//18
f 18//19 22//19 19//19
f 21//20 24//20 25//20
f 20//21 24//21 21//21
f 23//22 26//22 27//22
f 22//23 26//23 23//23
f 25//24 28//24 29//24
f 27//25 30//25 31//25
f 24//26 28//26 25//26
f 26//27 30//27 27//27
f 29//28 32//28 33//28
f 28//29 32//29 29//29
f 31//30 34//30 35//30
f 30//31 34//31 31//31
f 33//32 36//32 37//32
f 32//33 36//33 33//33
f 35//34 38//34 39//34
f 37//35 7//35 9//35
f 34//36 38//36 35//36
f 36//37 7//37 37//37
f 39//38 40//38 41//38
f 38//39 40//39 39//39
f 40//40 42//40 41//40
f 41//41 42//41 43//41
f 42//42 44//42 43//42
f 43//43 44//43 45//43
f 44//44 46//44 45//44
f 45//45 46//45 47//45
f 46//46 48//46 47//46
f 47//47 48//47 49//47
f 48//48 50//48 49//48
f 49//49 50//49 51//49
f 50//50 52//50 51//50
f 51//51 52//51 53//51
f 52//52 54//52 53//52
f 53//53 54//53 55//53
f 54//54 56//54 55//54
f 55//55 56//55 57//55
f 56//56 58//56 57//56
f 57//57 58//57 1//57
f 58//58 2//58 1//58
f 7//59 22//59 8//59
f 8//60 22//60 14//60
f 14//61 22//61 18//61
f 26//62 22//62 30//62
f 30//63 22//63 34//63
f 34//64 22//64 38//64
f 38//65 22//65 40//65
f 40//66 22//66 42//66
f 42//67 22//67 44//67
f 44//68 22//68 46//68
f 46//69 22//69 48//69
f 48//70 22//70 50//70
f 50//71 22//71 52//71
f 52//72 22//72 54//72
f 54//73 22//73 56//73
f 56//74 22//74 58//74
f 58//75 22//75 2//75
f 2//76 22//76 4//76
f 4//77 22//77 6//77
f 6//78 22//78 12//78
f 12//79 22//79 16//79
f 16//80 22//80 20//80
f 20//81 22//81 24//81
f 24//82 22//82 28//82
f 28//83 22//83 32//83
f 32//84 22//84 36//84
f 36//85 22//85 7//85
f 23//86 9//86 11//86
f 23//87 11//87 15//87
f 23//88 15//88 19//88
f 23//89 27//89 31//89
f 23//90 31//90 35//90
f 23//91 35//91 39//91
f 23//92 39//92 41//92
f 23//93 41//93 43//93
f 23//94 43//94 45//94
f 23//95 45//95 47//95
f 23//96 47//96 49//96
f 23//97 49//97 51//97
f 23//98 51//98 53//98
f 23//99 53//99 55//99
f 23//100 55//100 57//100
f 23//101 57//101 1//101
f 23//102 1//102 3//102
f 23//103 3//103 5//103
f 23//104 5//104 10//104
f 23//105 10//105 13//105
f 23//106 13//106 17//106
f 23//107 17//107 21//107
f 23//108 21//108 25//108
f 23//109 25//109 29//109
f 23//110 29//110 33//110
f 23//111 33//111 37//111
f 23//112 37//112 9//112
