# Created by FreeCAD <http://www.freecadweb.org>
v -0.029040 -0.086751 -0.126827
v -0.022447 0.043249 -0.132427
v -0.022447 -0.086751 -0.132427
v -0.014806 0.043249 -0.136478
v -0.014806 -0.086751 -0.136478
v -0.006471 0.043249 -0.138792
v -0.006471 -0.086751 -0.138792
v 0.040000 0.043249 -0.099319
v 0.039065 0.043249 -0.090720
v 0.040000 -0.086751 -0.099319
v 0.039065 -0.086751 -0.090720
v 0.002166 0.043249 -0.139260
v 0.002166 -0.086751 -0.139260
v 0.036303 0.043249 -0.082523
v 0.036303 -0.086751 -0.082523
v 0.010701 0.043249 -0.137861
v 0.010701 -0.086751 -0.137861
v 0.031844 0.043249 -0.075112
v 0.031844 -0.086751 -0.075112
v 0.018736 0.043249 -0.134659
v 0.018736 -0.086751 -0.134659
v 0.025895 0.043249 -0.068833
v 0.025895 -0.086751 -0.068833
v 0.025895 0.043249 -0.129805
v 0.025895 -0.086751 -0.129805
v 0.018736 0.043249 -0.063979
v 0.018736 -0.086751 -0.063979
v 0.031844 0.043249 -0.123526
v 0.031844 -0.086751 -0.123526
v 0.010701 0.043249 -0.060777
v 0.010701 -0.086751 -0.060777
v 0.036303 0.043249 -0.116115
v 0.036303 -0.086751 -0.116115
v 0.002166 0.043249 -0.059378
v 0.002166 -0.086751 -0.059378
v 0.039065 0.043249 -0.107918
v 0.039065 -0.086751 -0.107918
v -0.006471 0.043249 -0.059846
v -0.006471 -0.086751 -0.059846
v -0.014806 0.043249 -0.062160
v -0.014806 -0.086751 -0.062160
v -0.022447 0.043249 -0.066211
v -0.022447 -0.086751 -0.066211
v -0.029040 0.043249 -0.071811
v -0.029040 -0.086751 -0.071811
v -0.034274 0.043249 -0.078697
v -0.034274 -0.086751 -0.078697
v -0.037906 0.043249 -0.086547
v -0.037906 -0.086751 -0.086547
v -0.039766 0.043249 -0.094994
v -0.039766 -0.086751 -0.094994
v -0.039766 0.043249 -0.103644
v -0.039766 -0.086751 -0.103644
v -0.037906 0.043249 -0.112091
v -0.037906 -0.086751 -0.112091
v -0.034274 0.043249 -0.119941
v -0.034274 -0.086751 -0.119941
v -0.029040 0.043249 -0.126827
vn -0.647387 0.000000 -0.762162
vn -0.468408 -0.000000 -0.883512
vn -0.468408 0.000000 -0.883512
vn -0.267529 -0.000000 -0.963550
vn -0.267529 0.000000 -0.963550
vn 0.994138 0.000000 0.108119
vn 0.994138 0.000000 0.108119
vn -0.054138 0.000000 -0.998533
vn -0.054138 -0.000000 -0.998533
vn 0.947653 0.000000 0.319301
vn 0.947653 0.000000 0.319301
vn 0.161782 0.000000 -0.986826
vn 0.161782 0.000000 -0.986826
vn 0.856857 0.000000 0.515554
vn 0.856857 0.000000 0.515554
vn 0.370138 0.000000 -0.928977
vn 0.370138 0.000000 -0.928977
vn 0.725996 0.000000 0.687699
vn 0.725996 0.000000 0.687699
vn 0.561188 0.000000 -0.827689
vn 0.561188 0.000000 -0.827689
vn 0.561187 0.000000 0.827689
vn 0.561187 0.000000 0.827689
vn 0.725995 0.000000 -0.687700
vn 0.725995 0.000000 -0.687700
vn 0.370138 0.000000 0.928977
vn 0.370138 0.000000 0.928977
vn 0.856857 0.000000 -0.515554
vn 0.856857 0.000000 -0.515554
vn 0.161782 0.000000 0.986826
vn 0.161782 0.000000 0.986826
vn 0.947653 0.000000 -0.319301
vn 0.947653 0.000000 -0.319301
vn -0.054139 0.000000 0.998533
vn 0.994138 0.000000 -0.108119
vn -0.054139 0.000000 0.998533
vn 0.994138 0.000000 -0.108119
vn -0.267528 0.000000 0.963550
vn -0.267528 0.000000 0.963550
vn -0.468409 0.000000 0.883512
vn -0.468409 0.000000 0.883512
vn -0.647386 0.000000 0.762162
vn -0.647386 0.000000 0.762162
vn -0.796093 0.000000 0.605174
vn -0.796093 0.000000 0.605174
vn -0.907575 0.000000 0.419889
vn -0.907575 0.000000 0.419889
vn -0.976620 0.000000 0.214970
vn -0.976620 0.000000 0.214970
vn -1.000000 -0.000000 -0.000000
vn -1.000000 0.000000 0.000000
vn -0.976620 -0.000000 -0.214970
vn -0.976620 0.000000 -0.214970
vn -0.907575 -0.000000 -0.419889
vn -0.907575 0.000000 -0.419889
vn -0.796093 -0.000000 -0.605175
vn -0.796093 0.000000 -0.605175
vn -0.647387 -0.000000 -0.762162
vn 0.000000 1.000000 0.000000
vn 0.000000 1.000000 0.000000
vn 0.000000 1.000000 0.000000
vn 0.000000 1.000000 0.000000
vn 0.000000 1.000000 0.000000
vn 0.000000 1.000000 0.000000
vn 0.000000 1.000000 0.000000
vn 0.000000 1.000000 0.000000
vn 0.000000 1.000000 0.000000
vn 0.000000 1.000000 0.000000
vn 0.000000 1.000000 0.000000
vn 0.000000 1.000000 0.000000
vn 0.000000 1.000000 0.000000
vn 0.000000 1.000000 0.000000
vn 0.000000 1.000000 0.000000
vn 0.000000 1.000000 0.000000
vn 0.000000 1.000000 0.000000
vn 0.000000 1.000000 0.000000
vn 0.000000 1.000000 0.000000
vn -0.000000 1.000000 0.000000
vn -0.000000 1.000000 0.000000
vn -0.000000 1.000000 0.000000
vn 0.000000 1.000000 0.000000
vn 0.000000 1.000000 0.000000
vn 0.000000 1.000000 -0.000000
vn 0.000000 1.000000 -0.000000
vn 0.000000 1.000000 -0.000000
vn 0.000000 -1.000000 0.000000
vn 0.000000 -1.000000 0.000000
vn 0.000000 -1.000000 0.000000
vn 0.000000 -1.000000 0.000000
vn 0.000000 -1.000000 0.000000
vn 0.000000 -1.000000 0.000000
vn 0.000000 -1.000000 0.000000
vn 0.000000 -1.000000 0.000000
vn 0.000000 -1.000000 0.000000
vn 0.000000 -1.000000 0.000000
vn 0.000000 -1.000000 0.000000
vn 0.000000 -1.000000 0.000000
vn 0.000000 -1.000000 0.000000
vn 0.000000 -1.000000 0.000000
vn 0.000000 -1.000000 0.000000
vn 0.000000 -1.000000 0.000000
vn 0.000000 -1.000000 0.000000
vn 0.000000 -1.000000 0.000000
vn -0.000000 -1.000000 0.000000
vn 0.000000 -1.000000 0.000000
vn 0.000000 -1.000000 0.000000
vn 0.000000 -1.000000 0.000000
vn 0.000000 -1.000000 0.000000
vn 0.000000 -1.000000 0.000000
vn 0.000000 -1.000000 0.000000
vn 0.000000 -1.000000 0.000000
vn 0.000000 -1.000000 0.000000
f 1//1 2//1 3//1
f 2//2 4//2 3//2
f 3//3 4//3 5//3
f 4//4 6//4 5//4
f 5//5 6//5 7//5
f 8//6 9//6 10//6
f 10//7 9//7 11//7
f 7//8 12//8 13//8
f 6//9 12//9 7//9
f 11//10 14//10 15//10
f 9//11 14//11 11//11
f 12//12 16//12 13//12
f 13//13 16//13 17//13
f 15//14 18//14 19//14
f 14//15 18//15 15//15
f 17//16 20//16 21//16
f 16//17 20//17 17//17
f 19//18 22//18 23//18
f 18//19 22//19 19//19
f 21//20 24//20 25//20
f 20//21 24//21 21//21
f 23//22 26//22 27//22
f 22//23 26//23 23//23
f 25//24 28//24 29//24
f 24//25 28//25 25//25
f 27//26 30//26 31//26
f 26//27 30//27 27//27
f 29//28 32//28 33//28
f 28//29 32//29 29//29
f 31//30 34//30 35//30
f 30//31 34//31 31//31
f 33//32 36//32 37//32
f 32//33 36//33 33//33
f 35//34 38//34 39//34
f 37//35 8//35 10//35
f 34//36 38//36 35//36
f 36//37 8//37 37//37
f 39//38 40//38 41//38
f 38//39 40//39 39//39
f 40//40 42//40 41//40
f 41//41 42//41 43//41
f 42//42 44//42 43//42
f 43//43 44//43 45//43
f 44//44 46//44 45//44
f 45//45 46//45 47//45
f 46//46 48//46 47//46
f 47//47 48//47 49//47
f 48//48 50//48 49//48
f 49//49 50//49 51//49
f 50//50 52//50 51//50
f 51//51 52//51 53//51
f 52//52 54//52 53//52
f 53//53 54//53 55//53
f 54//54 56//54 55//54
f 55//55 56//55 57//55
f 56//56 58//56 57//56
f 57//57 58//57 1//57
f 58//58 2//58 1//58
f 8//59 24//59 9//59
f 9//60 24//60 14//60
f 14//61 24//61 18//61
f 18//62 24//62 22//62
f 22//63 24//63 26//63
f 26//64 24//64 30//64
f 30//65 24//65 34//65
f 34//66 24//66 38//66
f 38//67 24//67 40//67
f 40//68 24//68 42//68
f 42//69 24//69 44//69
f 44//70 24//70 46//70
f 46//71 24//71 48//71
f 48//72 24//72 50//72
f 50//73 24//73 52//73
f 52//74 24//74 54//74
f 54//75 24//75 56//75
f 56//76 24//76 58//76
f 58//77 24//77 2//77
f 2//78 24//78 4//78
f 4//79 24//79 6//79
f 6//80 24//80 12//80
f 12//81 24//81 16//81
f 16//82 24//82 20//82
f 28//83 24//83 32//83
f 32//84 24//84 36//84
f 36//85 24//85 8//85
f 25//86 10//86 11//86
f 25//87 11//87 15//87
f 25//88 15//88 19//88
f 25//89 19//89 23//89
f 25//90 23//90 27//90
f 25//91 27//91 31//91
f 25//92 31//92 35//92
f 25//93 35//93 39//93
f 25//94 39//94 41//94
f 25//95 41//95 43//95
f 25//96 43//96 45//96
f 25//97 45//97 47//97
f 25//98 47//98 49//98
f 25//99 49//99 51//99
f 25//100 51//100 53//100
f 25//101 53//101 55//101
f 25//102 55//102 57//102
f 25//103 57//103 1//103
f 25//104 1//104 3//104
f 25//105 3//105 5//105
f 25//106 5//106 7//106
f 25//107 7//107 13//107
f 25//108 13//108 17//108
f 25//109 17//109 21//109
f 25//110 29//110 33//110
f 25//111 33//111 37//111
f 25//112 37//112 10//112
