# Created by FreeCAD <http://www.freecadweb.org>
v -0.036955 -0.015307 0.012835
v -0.033259 -0.022223 -0.067165
v -0.033259 -0.022223 0.012835
v -0.028284 -0.028284 -0.067165
v -0.028284 -0.028284 0.012835
v -0.022223 -0.033259 -0.067165
v -0.022223 -0.033259 0.012835
v 0.040000 0.000000 -0.067165
v 0.039231 0.007804 -0.067165
v 0.040000 0.000000 0.012835
v 0.039231 0.007804 0.012835
v -0.015307 -0.036955 -0.067165
v -0.015307 -0.036955 0.012835
v 0.036955 0.015307 -0.067165
v 0.036955 0.015307 0.012835
v -0.007804 -0.039231 -0.067165
v -0.007804 -0.039231 0.012835
v 0.033259 0.022223 -0.067165
v 0.033259 0.022223 0.012835
v 0.000000 -0.040000 -0.067165
v 0.000000 -0.040000 0.012835
v 0.028284 0.028284 -0.067165
v 0.028284 0.028284 0.012835
v 0.007804 -0.039231 -0.067165
v 0.007804 -0.039231 0.012835
v 0.022223 0.033259 -0.067165
v 0.022223 0.033259 0.012835
v 0.015307 -0.036955 -0.067165
v 0.015307 -0.036955 0.012835
v 0.015307 0.036955 -0.067165
v 0.015307 0.036955 0.012835
v 0.022223 -0.033259 -0.067165
v 0.022223 -0.033259 0.012835
v 0.007804 0.039231 -0.067165
v 0.007804 0.039231 0.012835
v 0.028284 -0.028284 -0.067165
v 0.028284 -0.028284 0.012835
v 0.000000 0.040000 -0.067165
v 0.000000 0.040000 0.012835
v 0.033259 -0.022223 -0.067165
v 0.033259 -0.022223 0.012835
v -0.007804 0.039231 -0.067165
v -0.007804 0.039231 0.012835
v 0.036955 -0.015307 -0.067165
v 0.036955 -0.015307 0.012835
v -0.015307 0.036955 -0.067165
v -0.015307 0.036955 0.012835
v 0.039231 -0.007804 -0.067165
v 0.039231 -0.007804 0.012835
v -0.022223 0.033259 -0.067165
v -0.022223 0.033259 0.012835
v -0.028284 0.028284 -0.067165
v -0.028284 0.028284 0.012835
v -0.033259 0.022223 -0.067165
v -0.033259 0.022223 0.012835
v -0.036955 0.015307 -0.067165
v -0.036955 0.015307 0.012835
v -0.039231 0.007804 -0.067165
v -0.039231 0.007804 0.012835
v -0.040000 -0.000000 -0.067165
v -0.040000 -0.000000 0.012835
v -0.039231 -0.007804 -0.067165
v -0.039231 -0.007804 0.012835
v -0.036955 -0.015307 -0.067165
vn -0.881921 -0.471397 0.000000
vn -0.773010 -0.634393 0.000000
vn -0.773010 -0.634393 0.000000
vn -0.634393 -0.773010 0.000000
vn -0.634393 -0.773010 0.000000
vn 0.995185 0.098017 -0.000000
vn 0.995185 0.098017 0.000000
vn -0.471397 -0.881921 0.000000
vn -0.471397 -0.881921 0.000000
vn 0.956940 0.290285 0.000000
vn 0.956940 0.290285 -0.000000
vn -0.290285 -0.956940 0.000000
vn 0.881921 0.471397 0.000000
vn -0.290285 -0.956940 0.000000
vn 0.881921 0.471397 -0.000000
vn -0.098017 -0.995185 0.000000
vn -0.098017 -0.995185 0.000000
vn 0.773010 0.634393 0.000000
vn 0.773010 0.634393 -0.000000
vn 0.098017 -0.995185 0.000000
vn 0.098017 -0.995185 0.000000
vn 0.634393 0.773010 0.000000
vn 0.634393 0.773010 -0.000000
vn 0.290285 -0.956940 0.000000
vn 0.471397 0.881921 0.000000
vn 0.290285 -0.956940 0.000000
vn 0.471397 0.881921 -0.000000
vn 0.471397 -0.881921 0.000000
vn 0.471397 -0.881921 0.000000
vn 0.290285 0.956940 0.000000
vn 0.290285 0.956940 -0.000000
vn 0.634393 -0.773010 0.000000
vn 0.098017 0.995185 -0.000000
vn 0.634393 -0.773010 0.000000
vn 0.098017 0.995185 0.000000
vn 0.773010 -0.634393 0.000000
vn 0.773010 -0.634393 0.000000
vn -0.098017 0.995185 0.000000
vn -0.098017 0.995185 0.000000
vn 0.881921 -0.471397 0.000000
vn 0.881921 -0.471397 0.000000
vn -0.290285 0.956940 0.000000
vn -0.290285 0.956940 0.000000
vn 0.956940 -0.290285 0.000000
vn 0.956940 -0.290285 0.000000
vn 0.995185 -0.098017 0.000000
vn -0.471397 0.881921 0.000000
vn -0.471397 0.881921 0.000000
vn 0.995185 -0.098017 0.000000
vn -0.634393 0.773010 0.000000
vn -0.634393 0.773010 0.000000
vn -0.773010 0.634393 0.000000
vn -0.773010 0.634393 0.000000
vn -0.881921 0.471397 0.000000
vn -0.881921 0.471397 0.000000
vn -0.956940 0.290285 0.000000
vn -0.956940 0.290285 0.000000
vn -0.995185 0.098017 0.000000
vn -0.995185 0.098017 0.000000
vn -0.995185 -0.098017 0.000000
vn -0.995185 -0.098017 0.000000
vn -0.956940 -0.290285 0.000000
vn -0.956940 -0.290285 0.000000
vn -0.881921 -0.471397 0.000000
vn 0.000000 0.000000 -1.000000
vn 0.000000 0.000000 -1.000000
vn 0.000000 0.000000 -1.000000
vn -0.000000 -0.000000 -1.000000
vn -0.000000 -0.000000 -1.000000
vn -0.000000 -0.000000 -1.000000
vn 0.000000 -0.000000 -1.000000
vn 0.000000 -0.000000 -1.000000
vn 0.000000 -0.000000 -1.000000
vn 0.000000 -0.000000 -1.000000
vn 0.000000 -0.000000 -1.000000
vn 0.000000 -0.000000 -1.000000
vn 0.000000 -0.000000 -1.000000
vn 0.000000 -0.000000 -1.000000
vn 0.000000 0.000000 -1.000000
vn 0.000000 0.000000 -1.000000
vn 0.000000 0.000000 -1.000000
vn 0.000000 0.000000 -1.000000
vn 0.000000 0.000000 -1.000000
vn 0.000000 0.000000 -1.000000
vn 0.000000 0.000000 -1.000000
vn 0.000000 0.000000 -1.000000
vn 0.000000 0.000000 -1.000000
vn 0.000000 0.000000 -1.000000
vn 0.000000 0.000000 -1.000000
vn 0.000000 0.000000 -1.000000
vn 0.000000 0.000000 -1.000000
vn 0.000000 0.000000 -1.000000
vn 0.000000 0.000000 -1.000000
vn 0.000000 0.000000 -1.000000
vn 0.000000 0.000000 1.000000
vn 0.000000 0.000000 1.000000
vn 0.000000 0.000000 1.000000
vn 0.000000 0.000000 1.000000
vn 0.000000 0.000000 1.000000
vn 0.000000 0.000000 1.000000
vn 0.000000 0.000000 1.000000
vn 0.000000 0.000000 1.000000
vn 0.000000 0.000000 1.000000
vn 0.000000 0.000000 1.000000
vn 0.000000 0.000000 1.000000
vn 0.000000 0.000000 1.000000
vn 0.000000 0.000000 1.000000
vn 0.000000 0.000000 1.000000
vn 0.000000 0.000000 1.000000
vn 0.000000 0.000000 1.000000
vn 0.000000 0.000000 1.000000
vn 0.000000 0.000000 1.000000
vn 0.000000 0.000000 1.000000
vn 0.000000 0.000000 1.000000
vn 0.000000 0.000000 1.000000
vn 0.000000 0.000000 1.000000
vn 0.000000 0.000000 1.000000
vn 0.000000 0.000000 1.000000
vn 0.000000 0.000000 1.000000
vn 0.000000 0.000000 1.000000
vn 0.000000 0.000000 1.000000
vn 0.000000 0.000000 1.000000
vn 0.000000 0.000000 1.000000
vn 0.000000 0.000000 1.000000
f 1//1 2//1 3//1
f 2//2 4//2 3//2
f 3//3 4//3 5//3
f 5//4 6//4 7//4
f 4//5 6//5 5//5
f 8//6 9//6 10//6
f 10//7 9//7 11//7
f 6//8 12//8 7//8
f 7//9 12//9 13//9
f 11//10 14//10 15//10
f 9//11 14//11 11//11
f 13//12 16//12 17//12
f 15//13 18//13 19//13
f 12//14 16//14 13//14
f 14//15 18//15 15//15
f 17//16 20//16 21//16
f 16//17 20//17 17//17
f 19//18 22//18 23//18
f 18//19 22//19 19//19
f 21//20 24//20 25//20
f 20//21 24//21 21//21
f 23//22 26//22 27//22
f 22//23 26//23 23//23
f 25//24 28//24 29//24
f 27//25 30//25 31//25
f 24//26 28//26 25//26
f 26//27 30//27 27//27
f 29//28 32//28 33//28
f 28//29 32//29 29//29
f 31//30 34//30 35//30
f 30//31 34//31 31//31
f 33//32 36//32 37//32
f 34//33 38//33 35//33
f 32//34 36//34 33//34
f 35//35 38//35 39//35
f 37//36 40//36 41//36
f 36//37 40//37 37//37
f 38//38 42//38 39//38
f 39//39 42//39 43//39
f 41//40 44//40 45//40
f 40//41 44//41 41//41
f 42//42 46//42 43//42
f 43//43 46//43 47//43
f 45//44 48//44 49//44
f 44//45 48//45 45//45
f 49//46 8//46 10//46
f 46//47 50//47 47//47
f 47//48 50//48 51//48
f 48//49 8//49 49//49
f 50//50 52//50 51//50
f 51//51 52//51 53//51
f 52//52 54//52 53//52
f 53//53 54//53 55//53
f 54//54 56//54 55//54
f 55//55 56//55 57//55
f 56//56 58//56 57//56
f 57//57 58//57 59//57
f 58//58 60//58 59//58
f 59//59 60//59 61//59
f 60//60 62//60 61//60
f 61//61 62//61 63//61
f 62//62 64//62 63//62
f 63//63 64//63 1//63
f 64//64 2//64 1//64
f 8//65 22//65 9//65
f 9//66 22//66 14//66
f 14//67 22//67 18//67
f 26//68 22//68 30//68
f 30//69 22//69 34//69
f 34//70 22//70 38//70
f 38//71 22//71 42//71
f 42//72 22//72 46//72
f 46//73 22//73 50//73
f 50//74 22//74 52//74
f 52//75 22//75 54//75
f 54//76 22//76 56//76
f 56//77 22//77 58//77
f 58//78 22//78 60//78
f 60//79 22//79 62//79
f 62//80 22//80 64//80
f 64//81 22//81 2//81
f 2//82 22//82 4//82
f 4//83 22//83 6//83
f 6//84 22//84 12//84
f 12//85 22//85 16//85
f 16//86 22//86 20//86
f 20//87 22//87 24//87
f 24//88 22//88 28//88
f 28//89 22//89 32//89
f 32//90 22//90 36//90
f 36//91 22//91 40//91
f 40//92 22//92 44//92
f 44//93 22//93 48//93
f 48//94 22//94 8//94
f 23//95 10//95 11//95
f 23//96 11//96 15//96
f 23//97 15//97 19//97
f 23//98 27//98 31//98
f 23//99 31//99 35//99
f 23//100 35//100 39//100
f 23//101 39//101 43//101
f 23//102 43//102 47//102
f 23//103 47//103 51//103
f 23//104 51//104 53//104
f 23//105 53//105 55//105
f 23//106 55//106 57//106
f 23//107 57//107 59//107
f 23//108 59//108 61//108
f 23//109 61//109 63//109
f 23//110 63//110 1//110
f 23//111 1//111 3//111
f 23//112 3//112 5//112
f 23//113 5//113 7//113
f 23//114 7//114 13//114
f 23//115 13//115 17//115
f 23//116 17//116 21//116
f 23//117 21//117 25//117
f 23//118 25//118 29//118
f 23//119 29//119 33//119
f 23//120 33//120 37//120
f 23//121 37//121 41//121
f 23//122 41//122 45//122
f 23//123 45//123 49//123
f 23//124 49//124 10//124
