# Created by FreeCAD <http://www.freecadweb.org>
v -0.038703 0.003307 -0.001550
v -0.038703 -0.003307 -0.021550
v -0.038703 -0.003307 -0.001550
v -0.037585 -0.009827 -0.021550
v -0.037585 -0.009827 -0.001550
v -0.035381 -0.016064 -0.021550
v -0.035381 -0.016064 -0.001550
v 0.039157 0.000000 -0.021550
v 0.038596 0.006591 -0.021550
v 0.039157 0.000000 -0.001550
v 0.038596 0.006591 -0.001550
v -0.032155 -0.021839 -0.021550
v -0.032155 -0.021839 -0.001550
v 0.036929 0.012992 -0.021550
v 0.036929 0.012992 -0.001550
v -0.027999 -0.026986 -0.021550
v -0.027999 -0.026986 -0.001550
v 0.034205 0.019020 -0.021550
v 0.034205 0.019020 -0.001550
v -0.023034 -0.031356 -0.021550
v -0.023034 -0.031356 -0.001550
v 0.030500 0.024501 -0.021550
v 0.030500 0.024501 -0.001550
v -0.017401 -0.034824 -0.021550
v -0.017401 -0.034824 -0.001550
v 0.025923 0.029276 -0.021550
v 0.025923 0.029276 -0.001550
v -0.011263 -0.037291 -0.021550
v -0.011263 -0.037291 -0.001550
v 0.020605 0.033210 -0.021550
v 0.020605 0.033210 -0.001550
v -0.004797 -0.038684 -0.021550
v -0.004797 -0.038684 -0.001550
v 0.014698 0.036188 -0.021550
v 0.014698 0.036188 -0.001550
v 0.001812 -0.038965 -0.021550
v 0.001812 -0.038965 -0.001550
v 0.008373 0.038125 -0.021550
v 0.008373 0.038125 -0.001550
v 0.008373 -0.038125 -0.021550
v 0.008373 -0.038125 -0.001550
v 0.001812 0.038965 -0.021550
v 0.001812 0.038965 -0.001550
v 0.014698 -0.036188 -0.021550
v 0.014698 -0.036188 -0.001550
v -0.004797 0.038684 -0.021550
v -0.004797 0.038684 -0.001550
v 0.020605 -0.033210 -0.021550
v 0.020605 -0.033210 -0.001550
v -0.011263 0.037291 -0.021550
v -0.011263 0.037291 -0.001550
v 0.025923 -0.029276 -0.021550
v 0.025923 -0.029276 -0.001550
v -0.017401 0.034824 -0.021550
v -0.017401 0.034824 -0.001550
v 0.030500 -0.024501 -0.021550
v 0.030500 -0.024501 -0.001550
v -0.023034 0.031356 -0.021550
v -0.023034 0.031356 -0.001550
v 0.034205 -0.019020 -0.021550
v 0.034205 -0.019020 -0.001550
v -0.027999 0.026986 -0.021550
v -0.027999 0.026986 -0.001550
v 0.036929 -0.012992 -0.021550
v 0.036929 -0.012992 -0.001550
v -0.032155 0.021839 -0.021550
v -0.032155 0.021839 -0.001550
v 0.038596 -0.006591 -0.021550
v 0.038596 -0.006591 -0.001550
v -0.035381 0.016064 -0.021550
v -0.035381 0.016064 -0.001550
v -0.037585 0.009827 -0.021550
v -0.037585 0.009827 -0.001550
v -0.038703 0.003307 -0.021550
vn -1.000000 -0.000000 0.000000
vn -0.985616 -0.169001 0.000000
vn -0.985616 -0.169001 0.000000
vn -0.942877 -0.333140 0.000000
vn -0.942877 -0.333140 0.000000
vn 0.996397 0.084806 -0.000000
vn 0.996397 0.084806 0.000000
vn -0.873014 -0.487695 0.000000
vn -0.873014 -0.487695 0.000000
vn 0.967733 0.251978 0.000000
vn 0.967733 0.251978 -0.000000
vn -0.778036 -0.628220 0.000000
vn -0.778036 -0.628220 0.000000
vn 0.911229 0.411901 0.000000
vn 0.911229 0.411901 -0.000000
vn -0.660675 -0.750672 0.000000
vn -0.660675 -0.750672 0.000000
vn 0.828510 0.559975 0.000000
vn 0.828510 0.559975 -0.000000
vn -0.524307 -0.851529 0.000000
vn -0.524307 -0.851529 0.000000
vn 0.721956 0.691939 0.000000
vn 0.721956 0.691939 -0.000000
vn -0.372857 -0.927889 0.000000
vn 0.594633 0.803997 -0.000000
vn -0.372857 -0.927889 0.000000
vn 0.594633 0.803997 0.000000
vn -0.210680 -0.977555 0.000000
vn -0.210680 -0.977555 0.000000
vn 0.450204 0.892926 -0.000000
vn 0.450204 0.892926 0.000000
vn -0.042441 -0.999099 0.000000
vn -0.042441 -0.999099 0.000000
vn 0.292823 0.956167 -0.000000
vn 0.292823 0.956167 0.000000
vn 0.127018 -0.991900 0.000000
vn 0.127018 -0.991900 0.000000
vn 0.127018 0.991900 -0.000000
vn 0.127018 0.991900 0.000000
vn 0.292823 -0.956167 0.000000
vn -0.042441 0.999099 0.000000
vn 0.292823 -0.956167 0.000000
vn -0.042441 0.999099 0.000000
vn 0.450204 -0.892926 0.000000
vn 0.450204 -0.892926 0.000000
vn -0.210680 0.977555 0.000000
vn -0.210680 0.977555 0.000000
vn 0.594633 -0.803997 0.000000
vn 0.594633 -0.803997 0.000000
vn -0.372857 0.927889 0.000000
vn -0.372857 0.927889 0.000000
vn 0.721956 -0.691939 0.000000
vn 0.721956 -0.691939 0.000000
vn -0.524307 0.851529 0.000000
vn -0.524307 0.851529 0.000000
vn 0.828510 -0.559975 0.000000
vn 0.828510 -0.559975 0.000000
vn -0.660675 0.750672 0.000000
vn -0.660675 0.750672 0.000000
vn 0.911229 -0.411901 0.000000
vn 0.911229 -0.411901 0.000000
vn -0.778036 0.628220 0.000000
vn -0.778036 0.628220 0.000000
vn 0.967733 -0.251978 0.000000
vn 0.967733 -0.251978 0.000000
vn -0.873014 0.487695 0.000000
vn 0.996397 -0.084806 0.000000
vn -0.873014 0.487695 0.000000
vn 0.996397 -0.084806 0.000000
vn -0.942877 0.333140 0.000000
vn -0.942877 0.333140 0.000000
vn -0.985616 0.169001 0.000000
vn -0.985616 0.169001 0.000000
vn -1.000000 0.000000 0.000000
vn 0.000000 0.000000 -1.000000
vn 0.000000 0.000000 -1.000000
vn 0.000000 0.000000 -1.000000
vn 0.000000 0.000000 -1.000000
vn -0.000000 -0.000000 -1.000000
vn -0.000000 -0.000000 -1.000000
vn -0.000000 -0.000000 -1.000000
vn 0.000000 -0.000000 -1.000000
vn 0.000000 -0.000000 -1.000000
vn 0.000000 -0.000000 -1.000000
vn 0.000000 -0.000000 -1.000000
vn 0.000000 -0.000000 -1.000000
vn 0.000000 -0.000000 -1.000000
vn 0.000000 -0.000000 -1.000000
vn 0.000000 -0.000000 -1.000000
vn 0.000000 -0.000000 -1.000000
vn 0.000000 0.000000 -1.000000
vn 0.000000 0.000000 -1.000000
vn 0.000000 0.000000 -1.000000
vn 0.000000 0.000000 -1.000000
vn 0.000000 0.000000 -1.000000
vn 0.000000 0.000000 -1.000000
vn 0.000000 0.000000 -1.000000
vn 0.000000 0.000000 -1.000000
vn 0.000000 0.000000 -1.000000
vn 0.000000 0.000000 -1.000000
vn 0.000000 0.000000 -1.000000
vn 0.000000 0.000000 -1.000000
vn 0.000000 0.000000 -1.000000
vn 0.000000 0.000000 -1.000000
vn 0.000000 0.000000 -1.000000
vn 0.000000 0.000000 -1.000000
vn 0.000000 0.000000 -1.000000
vn 0.000000 0.000000 -1.000000
vn 0.000000 0.000000 -1.000000
vn 0.000000 0.000000 1.000000
vn 0.000000 0.000000 1.000000
vn 0.000000 0.000000 1.000000
vn 0.000000 0.000000 1.000000
vn 0.000000 0.000000 1.000000
vn 0.000000 0.000000 1.000000
vn 0.000000 0.000000 1.000000
vn 0.000000 0.000000 1.000000
vn 0.000000 0.000000 1.000000
vn 0.000000 0.000000 1.000000
vn 0.000000 0.000000 1.000000
vn 0.000000 0.000000 1.000000
vn 0.000000 0.000000 1.000000
vn 0.000000 0.000000 1.000000
vn 0.000000 0.000000 1.000000
vn 0.000000 0.000000 1.000000
vn 0.000000 0.000000 1.000000
vn 0.000000 0.000000 1.000000
vn 0.000000 0.000000 1.000000
vn 0.000000 0.000000 1.000000
vn 0.000000 0.000000 1.000000
vn 0.000000 0.000000 1.000000
vn 0.000000 0.000000 1.000000
vn 0.000000 0.000000 1.000000
vn 0.000000 0.000000 1.000000
vn 0.000000 0.000000 1.000000
vn 0.000000 0.000000 1.000000
vn 0.000000 0.000000 1.000000
vn 0.000000 0.000000 1.000000
vn 0.000000 0.000000 1.000000
vn 0.000000 0.000000 1.000000
vn 0.000000 0.000000 1.000000
vn 0.000000 0.000000 1.000000
vn 0.000000 0.000000 1.000000
vn 0.000000 0.000000 1.000000
f 1//1 2//1 3//1
f 3//2 4//2 5//2
f 2//3 4//3 3//3
f 5//4 6//4 7//4
f 4//5 6//5 5//5
f 8//6 9//6 10//6
f 10//7 9//7 11//7
f 7//8 12//8 13//8
f 6//9 12//9 7//9
f 11//10 14//10 15//10
f 9//11 14//11 11//11
f 13//12 16//12 17//12
f 12//13 16//13 13//13
f 15//14 18//14 19//14
f 14//15 18//15 15//15
f 17//16 20//16 21//16
f 16//17 20//17 17//17
f 19//18 22//18 23//18
f 18//19 22//19 19//19
f 21//20 24//20 25//20
f 20//21 24//21 21//21
f 23//22 26//22 27//22
f 22//23 26//23 23//23
f 25//24 28//24 29//24
f 26//25 30//25 27//25
f 24//26 28//26 25//26
f 27//27 30//27 31//27
f 29//28 32//28 33//28
f 28//29 32//29 29//29
f 30//30 34//30 31//30
f 31//31 34//31 35//31
f 33//32 36//32 37//32
f 32//33 36//33 33//33
f 34//34 38//34 35//34
f 35//35 38//35 39//35
f 37//36 40//36 41//36
f 36//37 40//37 37//37
f 38//38 42//38 39//38
f 39//39 42//39 43//39
f 41//40 44//40 45//40
f 42//41 46//41 43//41
f 40//42 44//42 41//42
f 43//43 46//43 47//43
f 44//44 48//44 45//44
f 45//45 48//45 49//45
f 46//46 50//46 47//46
f 47//47 50//47 51//47
f 48//48 52//48 49//48
f 49//49 52//49 53//49
f 50//50 54//50 51//50
f 51//51 54//51 55//51
f 52//52 56//52 53//52
f 53//53 56//53 57//53
f 54//54 58//54 55//54
f 55//55 58//55 59//55
f 56//56 60//56 57//56
f 57//57 60//57 61//57
f 58//58 62//58 59//58
f 59//59 62//59 63//59
f 60//60 64//60 61//60
f 61//61 64//61 65//61
f 62//62 66//62 63//62
f 63//63 66//63 67//63
f 64//64 68//64 65//64
f 65//65 68//65 69//65
f 66//66 70//66 67//66
f 68//67 8//67 69//67
f 67//68 70//68 71//68
f 69//69 8//69 10//69
f 70//70 72//70 71//70
f 71//71 72//71 73//71
f 72//72 74//72 73//72
f 73//73 74//73 1//73
f 74//74 2//74 1//74
f 8//75 26//75 9//75
f 9//76 26//76 14//76
f 14//77 26//77 18//77
f 18//78 26//78 22//78
f 30//79 26//79 34//79
f 34//80 26//80 38//80
f 38//81 26//81 42//81
f 42//82 26//82 46//82
f 46//83 26//83 50//83
f 50//84 26//84 54//84
f 54//85 26//85 58//85
f 58//86 26//86 62//86
f 62//87 26//87 66//87
f 66//88 26//88 70//88
f 70//89 26//89 72//89
f 72//90 26//90 74//90
f 74//91 26//91 2//91
f 2//92 26//92 4//92
f 4//93 26//93 6//93
f 6//94 26//94 12//94
f 12//95 26//95 16//95
f 16//96 26//96 20//96
f 20//97 26//97 24//97
f 24//98 26//98 28//98
f 28//99 26//99 32//99
f 32//100 26//100 36//100
f 36//101 26//101 40//101
f 40//102 26//102 44//102
f 44//103 26//103 48//103
f 48//104 26//104 52//104
f 52//105 26//105 56//105
f 56//106 26//106 60//106
f 60//107 26//107 64//107
f 64//108 26//108 68//108
f 68//109 26//109 8//109
f 27//110 10//110 11//110
f 27//111 11//111 15//111
f 27//112 15//112 19//112
f 27//113 19//113 23//113
f 27//114 31//114 35//114
f 27//115 35//115 39//115
f 27//116 39//116 43//116
f 27//117 43//117 47//117
f 27//118 47//118 51//118
f 27//119 51//119 55//119
f 27//120 55//120 59//120
f 27//121 59//121 63//121
f 27//122 63//122 67//122
f 27//123 67//123 71//123
f 27//124 71//124 73//124
f 27//125 73//125 1//125
f 27//126 1//126 3//126
f 27//127 3//127 5//127
f 27//128 5//128 7//128
f 27//129 7//129 13//129
f 27//130 13//130 17//130
f 27//131 17//131 21//131
f 27//132 21//132 25//132
f 27//133 25//133 29//133
f 27//134 29//134 33//134
f 27//135 33//135 37//135
f 27//136 37//136 41//136
f 27//137 41//137 45//137
f 27//138 45//138 49//138
f 27//139 49//139 53//139
f 27//140 53//140 57//140
f 27//141 57//141 61//141
f 27//142 61//142 65//142
f 27//143 65//143 69//143
f 27//144 69//144 10//144
